<?xml version="1.0" encoding="UTF-8"?>
<svg width="200px" height="200px" viewBox="0 0 200 200" version="1.1" xmlns="http://www.w3.org/2000/svg" xmlns:xlink="http://www.w3.org/1999/xlink">
    <!-- Generator: Sketch 49.3 (51167) - http://www.bohemiancoding.com/sketch -->
    <title>atmosphere</title>
    <desc>Created with Sketch.</desc>
    <defs></defs>
    <g id="atmosphere" stroke="none" stroke-width="1" fill="none" fill-rule="evenodd">
        <polygon id="–" fill="#FFFFFF" points="0 187.536 200 187.536 200 200 0 200"></polygon>
        <polygon id="–-copy" fill="#FFFFFF" points="0 164.357333 200 164.357333 200 176.821333 0 176.821333"></polygon>
        <polygon id="–-copy-2" fill="#FFFFFF" points="0 137.178667 200 137.178667 200 149.642667 0 149.642667"></polygon>
        <polygon id="–-copy-3" fill="#FFFFFF" points="0 106 200 106 200 118.464 0 118.464"></polygon>
        <path d="M25.8648147,50.9835699 C26.0327337,41.3016939 28.2698331,32.7008629 32.5761725,25.1808373 C37.0572469,17.3556774 43.8121982,11.2026525 52.8412288,6.72157808 C61.8702594,2.24050362 72.9390161,1.15815976e-14 86.0478309,1.07789142e-14 C99.0228823,9.98442141e-15 110.024758,2.24050362 119.053789,6.72157808 C128.08282,11.2026525 134.837771,17.3556774 139.318845,25.1808373 C141.928457,29.7379199 143.778186,34.6919039 144.868047,40.0428428 C149.315248,38.8504726 154.305236,38.2542931 159.838067,38.2542931 C168.524582,38.2542931 175.890099,39.7542617 181.93484,42.7542438 C187.97958,45.7542259 192.501873,49.8735426 195.501855,55.1123173 C198.501837,60.3510921 200.001806,66.3733539 200.001806,73.1792835 C200.001806,76.4568922 199.508146,79.6430602 198.52082,82.7378063 C194.5,82.7615394 123.5,82.9246256 121.081224,82.9246256 C121.053089,82.8382811 121.025339,82.7518653 120.997975,82.6653782 L36.689377,82.6653782 C36.6811162,82.6545168 36.6728602,82.6436546 36.6646089,82.6327915 C22.9408473,82.6836475 3.0832108,82.7580073 2.26197073,82.7510475 C0.753984991,79.7830902 -1.42108547e-14,76.6755165 0,73.428282 C0,69.0544167 0.963962439,65.1841794 2.89191624,61.8174541 C4.81987003,58.4507288 7.72614485,55.803429 11.6108279,53.8754752 C15.4879452,51.9512762 20.2392268,50.9873174 25.8648147,50.9835699 Z" id="Combined-Shape" fill="#FFFFFF"></path>
    </g>
</svg>