<?xml version="1.0" encoding="UTF-8"?>
<svg width="200px" height="200px" viewBox="0 0 200 200" version="1.1" xmlns="http://www.w3.org/2000/svg" xmlns:xlink="http://www.w3.org/1999/xlink">
    <!-- Generator: Sketch 49.3 (51167) - http://www.bohemiancoding.com/sketch -->
    <title>clearN</title>
    <desc>Created with Sketch.</desc>
    <defs></defs>
    <g id="clearN" stroke="none" stroke-width="1" fill="none" fill-rule="evenodd">
        <path d="M32.6867549,4.31517517 C43.1040937,1.43838283 54.2896478,-7.28491254e-15 66.2435399,-8.01687732e-15 C85.2423512,-9.18021899e-15 102.358141,3.76547368 117.591422,11.296534 C132.824703,18.8275944 144.934124,30.1240154 153.920048,45.1861361 C162.905972,60.2482567 167.398867,78.5621515 167.398867,100.12837 C167.398867,121.352267 162.905972,139.495004 153.920048,154.557125 C144.934124,169.619245 132.781913,180.958456 117.463052,188.575096 C102.144191,196.191737 85.0711907,200 66.2435399,200 C54.2568907,200 43.0427963,198.537288 32.6011328,195.611838 C38.9334363,193.816909 45.0120795,191.471331 50.8370904,188.575096 C66.1559517,180.958456 78.3081623,169.619245 87.2940865,154.557125 C96.2800108,139.495004 100.772906,121.352267 100.772906,100.12837 C100.772906,78.5621515 96.2800108,60.2482567 87.2940865,45.1861361 C78.3081623,30.1240154 66.1987412,18.8275944 50.9654601,11.296534 C45.1471913,8.42008653 39.0542991,6.09296901 32.6867549,4.31517517 Z" id="Combined-Shape" fill="#FFFFFF"></path>
    </g>
</svg>