<?xml version="1.0" encoding="UTF-8"?>
<svg width="200px" height="200px" viewBox="0 0 200 200" version="1.1" xmlns="http://www.w3.org/2000/svg" xmlns:xlink="http://www.w3.org/1999/xlink">
    <!-- Generator: Sketch 49.3 (51167) - http://www.bohemiancoding.com/sketch -->
    <title>clear</title>
    <desc>Created with Sketch.</desc>
    <defs></defs>
    <g id="clear" stroke="none" stroke-width="1" fill="none" fill-rule="evenodd">
        <g id="Group" fill="#FFFFFF">
            <path d="M102.271473,143.081643 C93.1994086,143.081643 85.4954697,141.227657 79.1594249,137.519631 C72.8233801,133.811605 68.0714178,128.735645 64.9033954,122.2916 C61.735373,115.847554 60.1513855,108.557612 60.1513855,100.421554 C60.1513855,92.4294977 61.735373,85.2295548 64.9033954,78.8215095 C68.0714178,72.4134642 72.8233801,67.3195046 79.1594249,63.5394779 C85.4954697,59.7594512 93.1994086,57.8694662 102.271473,57.8694662 C111.199536,57.8694662 118.831475,59.7594512 125.16752,63.5394779 C131.503565,67.3195046 136.273527,72.4314641 139.47755,78.8755096 C142.681572,85.3195552 144.28356,92.5014983 144.28356,100.421554 C144.28356,108.557612 142.681572,115.847554 139.47755,122.2916 C136.273527,128.735645 131.521565,133.811605 125.22152,137.519631 C118.921476,141.227657 111.271536,143.081643 102.271473,143.081643 Z" id="O" transform="translate(102.217473, 100.475554) rotate(90.000000) translate(-102.217473, -100.475554) "></path>
            <polygon id="’" transform="translate(179.038858, 103.284607) rotate(90.000000) translate(-179.038858, -103.284607) " points="171.527695 82.5037212 194.061186 82.5037212 183.295184 124.065494 164.016531 124.065494"></polygon>
            <polygon id="’" transform="translate(165.213314, 148.330438) rotate(123.000000) translate(-165.213314, -148.330438) " points="157.70215 127.549551 180.235641 127.549551 169.46964 169.111324 150.190987 169.111324"></polygon>
            <polygon id="’" transform="translate(127.908421, 174.773963) rotate(156.000000) translate(-127.908421, -174.773963) " points="120.397257 153.993076 142.930748 153.993076 132.164747 195.554849 112.886094 195.554849"></polygon>
            <polygon id="’" transform="translate(84.717181, 177.059751) rotate(184.000000) translate(-84.717181, -177.059751) " points="77.2060176 156.278865 99.7395086 156.278865 88.9735073 197.840638 69.6948539 197.840638"></polygon>
            <polygon id="’" transform="translate(46.924610, 157.468991) rotate(216.000000) translate(-46.924610, -157.468991) " points="39.4134466 136.688105 61.9469377 136.688105 51.1809364 178.249877 31.9022829 178.249877"></polygon>
            <polygon id="’" transform="translate(24.979291, 119.497830) rotate(254.000000) translate(-24.979291, -119.497830) " points="17.4681276 98.7169441 40.0016187 98.7169441 29.2356174 140.278717 9.95696394 140.278717"></polygon>
            <polygon id="’" transform="translate(26.973663, 75.881632) rotate(281.000000) translate(-26.973663, -75.881632) " points="19.4624991 55.1007455 41.9959902 55.1007455 31.2299889 96.6625179 11.9513354 96.6625179"></polygon>
            <polygon id="’" transform="translate(51.545711, 38.150508) rotate(313.000000) translate(-51.545711, -38.150508) " points="44.0345473 17.3696218 66.5680384 17.3696218 55.8020371 58.9313943 36.5233836 58.9313943"></polygon>
            <polygon id="’" transform="translate(92.352996, 23.556888) rotate(350.000000) translate(-92.352996, -23.556888) " points="84.8418322 2.7760022 107.375323 2.7760022 96.609322 44.3377746 77.3306685 44.3377746"></polygon>
            <polygon id="’" transform="translate(135.661905, 29.330640) rotate(373.000000) translate(-135.661905, -29.330640) " points="128.150741 8.54975339 150.684232 8.54975339 139.918231 50.1115258 120.639578 50.1115258"></polygon>
            <polygon id="’" transform="translate(168.279685, 54.769498) rotate(408.000000) translate(-168.279685, -54.769498) " points="160.768522 33.9886114 183.302013 33.9886114 172.536011 75.5503839 153.257358 75.5503839"></polygon>
        </g>
    </g>
</svg>