<?xml version="1.0" encoding="UTF-8"?>
<svg width="200px" height="200px" viewBox="0 0 200 200" version="1.1" xmlns="http://www.w3.org/2000/svg" xmlns:xlink="http://www.w3.org/1999/xlink">
    <!-- Generator: Sketch 49.3 (51167) - http://www.bohemiancoding.com/sketch -->
    <title>cloudy</title>
    <desc>Created with Sketch.</desc>
    <defs></defs>
    <g id="cloudy" stroke="none" stroke-width="1" fill="none" fill-rule="evenodd">
        <path d="M25.8645812,168.059233 C26.0324986,158.377444 28.2695778,149.776691 32.5758784,142.256733 C37.0569124,134.431644 43.8118026,128.278675 52.8407517,123.797641 C61.8697008,119.316607 72.9383576,117.076123 86.047054,117.076123 C99.0219883,117.076123 110.023765,119.316607 119.052714,123.797641 C128.081663,128.278675 134.836553,134.431644 139.317587,142.256733 C141.927175,146.813775 143.776888,151.767714 144.866739,157.118604 C149.3139,155.926245 154.303843,155.330071 159.836624,155.330071 C168.523061,155.330071 175.888511,156.830026 181.933197,159.829981 C187.977882,162.829936 192.500135,166.949215 195.50009,172.187943 C198.500045,177.42667 200,183.448878 200,190.254746 C200,193.532325 199.506345,196.718464 198.519028,199.813182 C194.498244,199.836915 123.498885,200 121.08013,200 C121.051996,199.913656 121.024246,199.827241 120.996882,199.740755 L36.6890457,199.740755 C36.6807851,199.729894 36.6725291,199.719032 36.6642779,199.708169 C22.9406402,199.759024 3.08318297,199.833383 2.26195031,199.826423 C0.753978184,196.858493 -7.10542736e-15,193.750947 7.10542736e-15,190.503742 C7.10542736e-15,186.129916 0.963953736,182.259714 2.89189013,178.893019 C4.81982652,175.526324 7.72607509,172.879048 11.610723,170.951112 C15.4878054,169.02693 20.2390441,168.06298 25.8645812,168.059233 Z" id="Combined-Shape" fill="#FFFFFF"></path>
        <path d="M92.0632859,26.0111517 C94.1994158,23.04169 97.1106637,20.6422062 100.797088,18.8126478 C104.894514,16.7791104 109.85091,15.6891231 115.666407,15.5426598 C115.868478,15.1463734 116.080119,14.755085 116.301328,14.3687945 C118.858337,9.90356911 122.712876,6.39250437 127.865059,3.83549495 C133.017242,1.27848553 139.333342,-3.65256395e-14 146.813549,-3.69836701e-14 C154.217427,-3.74370269e-14 160.495363,1.27848553 165.647547,3.83549495 C170.79973,6.39250437 174.654268,9.90356911 177.211278,14.3687945 C178.206971,16.1075433 179.008802,17.9475508 179.616771,19.8888262 C181.381769,20.4284035 183.043704,21.0850238 184.60258,21.8586882 C189.754763,24.4156976 193.609301,27.9267624 196.166311,32.3919878 C198.72332,36.8572132 200.001806,41.9902372 200.001806,47.7912138 C200.001806,50.5848558 199.581039,53.3005592 198.7395,55.9383399 C195.312388,55.9585686 134.796138,56.0975737 132.734514,56.0975737 C132.718634,56.0488391 132.702898,56.0000777 132.687307,55.9512897 L92.8983803,55.9512897 C92.8876836,55.9372256 92.8770031,55.9231584 92.8663388,55.9090882 C80.7045338,55.9541436 66.7818167,56.0051112 66.1143851,55.9994549 C64.6839567,53.1841429 63.96875,50.2363951 63.96875,47.1561695 C63.96875,43.0072569 64.8831348,39.3360702 66.7119318,36.1424993 C68.5407288,32.9489284 71.2975307,30.4377821 74.9824202,28.6089851 C78.6673097,26.7801881 83.1846435,25.8658033 88.5345572,25.8658033 C89.7534681,25.8658033 90.9297104,25.9142526 92.0632859,26.0111517 Z" id="Combined-Shape-Copy" fill="#FFFFFF"></path>
    </g>
</svg>