<?xml version="1.0" encoding="UTF-8"?>
<svg width="200px" height="200px" viewBox="0 0 200 200" version="1.1" xmlns="http://www.w3.org/2000/svg" xmlns:xlink="http://www.w3.org/1999/xlink">
    <!-- Generator: Sketch 49.3 (51167) - http://www.bohemiancoding.com/sketch -->
    <title>cloud1</title>
    <desc>Created with Sketch.</desc>
    <defs></defs>
    <g id="cloud1" stroke="none" stroke-width="1" fill="none" fill-rule="evenodd">
        <path d="M25.8645812,109.521171 C26.0324986,99.8393826 28.2695778,91.2386292 32.5758784,83.7186715 C37.0569124,75.8935823 43.8118026,69.740613 52.8407517,65.259579 C61.8697008,60.778545 72.9383576,58.5380616 86.047054,58.5380616 C99.0219883,58.5380616 110.023765,60.778545 119.052714,65.259579 C128.081663,69.740613 134.836553,75.8935823 139.317587,83.7186715 C141.927175,88.2757129 143.776888,93.2296523 144.866739,98.5805428 C149.3139,97.3881834 154.303843,96.7920093 159.836624,96.7920093 C168.523061,96.7920093 175.888511,98.2919643 181.933197,101.291919 C187.977882,104.291874 192.500135,108.411154 195.50009,113.649881 C198.500045,118.888609 200,124.910816 200,131.716684 C200,134.994263 199.506345,138.180403 198.519028,141.275121 C194.498244,141.298854 123.498885,141.461938 121.08013,141.461938 C121.051996,141.375595 121.024246,141.28918 120.996882,141.202693 L36.6890457,141.202693 C36.6807851,141.191832 36.6725291,141.18097 36.6642779,141.170107 C22.9406402,141.220963 3.08318297,141.295322 2.26195031,141.288362 C0.753978184,138.320431 -7.10542736e-15,135.212886 7.10542736e-15,131.965681 C7.10542736e-15,127.591855 0.963953736,123.721652 2.89189013,120.354958 C4.81982652,116.988263 7.72607509,114.340987 11.610723,112.41305 C15.4878054,110.488869 20.2390441,109.524919 25.8645812,109.521171 Z" id="Combined-Shape" fill="#FFFFFF"></path>
    </g>
</svg>