<?xml version="1.0" encoding="UTF-8"?>
<svg width="200px" height="200px" viewBox="0 0 200 200" version="1.1" xmlns="http://www.w3.org/2000/svg" xmlns:xlink="http://www.w3.org/1999/xlink">
    <!-- Generator: Sketch 49.3 (51167) - http://www.bohemiancoding.com/sketch -->
    <title>cloud2</title>
    <desc>Created with Sketch.</desc>
    <defs></defs>
    <g id="cloud2" stroke="none" stroke-width="1" fill="none" fill-rule="evenodd">
        <path d="M41.3054545,97.0042057 C44.4460586,92.6384115 48.7262652,89.1106164 54.1461593,86.4207431 C60.1703217,83.4309736 67.4573688,81.8284407 76.0074915,81.6131057 C76.3045837,81.0304732 76.6157441,80.455189 76.9409725,79.8872527 C80.7003667,73.3223404 86.3674282,68.1602646 93.9423271,64.4008704 C101.517226,60.6414762 110.803351,58.7618073 121.800982,58.7618073 C132.686392,58.7618073 141.916408,60.6414762 149.491307,64.4008704 C157.066206,68.1602646 162.733268,73.3223404 166.492662,79.8872527 C167.956561,82.4436149 169.135437,85.1488508 170.029292,88.0029738 C172.624247,88.796277 175.067675,89.7616605 177.359582,90.8991257 C184.934481,94.65852 190.601543,99.8205958 194.360937,106.385508 C198.120331,112.95042 200,120.497151 200,129.025926 C200,133.133225 199.381376,137.125936 198.14412,141.004082 C193.105473,141.033823 104.132613,141.238193 101.101551,141.238193 C101.078203,141.166542 101.055068,141.094851 101.032144,141.023122 L42.533236,141.023122 C42.5175094,141.002444 42.5018066,140.981762 42.4861276,140.961076 C24.6054663,141.027317 4.13585749,141.102251 3.15457897,141.093935 C1.051519,136.954777 -7.10542736e-14,132.620907 -5.68434189e-14,128.092264 C-5.68434189e-14,121.992405 1.34435676,116.594913 4.03311061,111.899626 C6.72186445,107.204339 10.7749998,103.512375 16.1926381,100.823621 C21.6102765,98.1348669 28.2518001,96.7905101 36.1174084,96.7905101 C37.9094898,96.7905101 39.6388384,96.8617419 41.3054568,97.0042061 Z" id="Combined-Shape-Copy" fill="#FFFFFF"></path>
    </g>
</svg>