<?xml version="1.0" encoding="UTF-8"?>
<svg width="200px" height="200px" viewBox="0 0 200 200" version="1.1" xmlns="http://www.w3.org/2000/svg" xmlns:xlink="http://www.w3.org/1999/xlink">
    <!-- Generator: Sketch 49.3 (51167) - http://www.bohemiancoding.com/sketch -->
    <title>cloud3</title>
    <desc>Created with Sketch.</desc>
    <defs></defs>
    <g id="cloud3" stroke="none" stroke-width="1" fill="none" fill-rule="evenodd">
        <path d="M39.0485731,98.0613623 C40.5240378,90.8453458 43.0220188,84.1634909 46.5425338,78.0157259 C52.6030711,67.4323994 61.738968,59.1105924 73.9504986,53.050055 C86.1620291,46.9895176 101.132236,43.9592944 118.86157,43.9592944 C136.409991,43.9592944 151.289744,46.9895176 163.501275,53.050055 C175.712805,59.1105924 184.848702,67.4323994 190.909239,78.0157259 C196.969777,88.5990523 200,100.765172 200,114.514451 C200,129.168288 195.115461,142.91736 185.346237,155.762081 L83.8761594,155.762081 C63.2916866,155.835674 6.05861261,156.05596 4.15985108,156.039868 C1.38660737,150.581681 -9.9475983e-14,144.866733 -8.52651283e-14,138.894944 C-8.52651283e-14,130.851238 1.77276396,123.733723 5.31834507,117.542186 C8.86392618,111.350649 14.2086772,106.482162 21.3527586,102.936581 C26.4346754,100.414445 32.3332487,98.7893782 39.0485731,98.0613623 Z" id="Combined-Shape-Copy-2" fill="#FFFFFF"></path>
    </g>
</svg>