<?xml version="1.0" encoding="UTF-8"?>
<svg width="200px" height="200px" viewBox="0 0 200 200" version="1.1" xmlns="http://www.w3.org/2000/svg" xmlns:xlink="http://www.w3.org/1999/xlink">
    <!-- Generator: Sketch 49.3 (51167) - http://www.bohemiancoding.com/sketch -->
    <title>partlyCloudy</title>
    <desc>Created with Sketch.</desc>
    <defs></defs>
    <g id="partlyCloudy" stroke="none" stroke-width="1" fill="none" fill-rule="evenodd">
        <g id="Group" transform="translate(146.375000, 57.625000) rotate(32.000000) translate(-146.375000, -57.625000) translate(88.875000, 5.125000)" fill="#FFFFFF">
            <path d="M58.6869825,69.2711776 C54.944756,69.2711776 51.7668812,68.5064086 49.1532628,66.9768478 C46.5396443,65.447287 44.5794598,63.3534536 43.2726506,60.6952848 C41.9658413,58.037116 41.3124465,55.0300149 41.3124465,51.6738911 C41.3124465,48.3771678 41.9658413,45.4071914 43.2726506,42.7638727 C44.5794598,40.120554 46.5396443,38.0192957 49.1532628,36.4600346 C51.7668812,34.9007736 54.944756,34.1211548 58.6869825,34.1211548 C62.3698085,34.1211548 65.5179836,34.9007736 68.1316021,36.4600346 C70.7452205,38.0192957 72.7128299,40.1279789 74.0344893,42.7861477 C75.3561486,45.4443165 76.0169684,48.406868 76.0169684,51.6738911 C76.0169684,55.0300149 75.3561486,58.037116 74.0344893,60.6952848 C72.7128299,63.3534536 70.7526455,65.447287 68.1538771,66.9768478 C65.5551087,68.5064086 62.3995087,69.2711776 58.6869825,69.2711776 Z" id="O" transform="translate(58.664707, 51.696166) rotate(90.000000) translate(-58.664707, -51.696166) "></path>
            <polygon id="’" transform="translate(99.489945, 50.696166) rotate(72.000000) translate(-99.489945, -50.696166) " points="94.8424127 37.8379928 108.78501 37.8379928 102.123547 63.5543395 90.1948802 63.5543395"></polygon>
            <polygon id="’" transform="translate(79.243092, 88.615660) rotate(139.000000) translate(-79.243092, -88.615660) " points="74.5955593 75.7574871 88.5381569 75.7574871 81.8766936 101.473834 69.9480267 101.473834"></polygon>
            <polygon id="’" transform="translate(34.535129, 86.975242) rotate(203.000000) translate(-34.535129, -86.975242) " points="29.8875963 74.1170691 43.8301939 74.1170691 37.1687306 99.8334158 25.2400637 99.8334158"></polygon>
            <polygon id="’" transform="translate(15.193629, 51.361823) rotate(254.000000) translate(-15.193629, -51.361823) " points="10.546096 38.5036495 24.4886936 38.5036495 17.8272303 64.2199962 5.89856347 64.2199962"></polygon>
            <polygon id="’" transform="translate(36.480865, 16.082273) rotate(324.000000) translate(-36.480865, -16.082273) " points="31.8333321 3.22409971 45.7759297 3.22409971 39.1144664 28.9404464 27.1857996 28.9404464"></polygon>
            <polygon id="’" transform="translate(78.126391, 15.724351) rotate(25.000000) translate(-78.126391, -15.724351) " points="73.4788587 2.86617801 87.4214563 2.86617801 80.759993 28.5825247 68.8313262 28.5825247"></polygon>
        </g>
        <path d="M25.8648147,167.927322 C26.0327337,158.245446 28.2698331,149.644615 32.5761725,142.12459 C37.0572469,134.29943 43.8121982,128.146405 52.8412288,123.66533 C61.8702594,119.184256 72.9390161,116.943752 86.0478309,116.943752 C99.0228823,116.943752 110.024758,119.184256 119.053789,123.66533 C128.08282,128.146405 134.837771,134.29943 139.318845,142.12459 C141.928457,146.681672 143.778186,151.635656 144.868047,156.986595 C149.315248,155.794225 154.305236,155.198045 159.838067,155.198045 C168.524582,155.198045 175.890099,156.698014 181.93484,159.697996 C187.97958,162.697978 192.501873,166.817295 195.501855,172.05607 C198.501837,177.294844 200.001806,183.317106 200.001806,190.123036 C200.001806,193.400644 199.508146,196.586812 198.52082,199.681559 C194.5,199.705292 123.5,199.868378 121.081224,199.868378 C121.053089,199.782033 121.025339,199.695618 120.997975,199.60913 L36.689377,199.60913 C36.6811162,199.598269 36.6728602,199.587407 36.6646089,199.576544 C22.9408473,199.6274 3.0832108,199.70176 2.26197073,199.6948 C0.753984991,196.726842 -1.42108547e-14,193.619269 0,190.372034 C0,185.998169 0.963962439,182.127932 2.89191624,178.761206 C4.81987003,175.394481 7.72614485,172.747181 11.6108279,170.819227 C15.4879452,168.895028 20.2392268,167.93107 25.8648147,167.927322 Z" id="Combined-Shape" fill="#FFFFFF"></path>
    </g>
</svg>