<?xml version="1.0" encoding="UTF-8"?>
<svg width="200px" height="200px" viewBox="0 0 200 200" version="1.1" xmlns="http://www.w3.org/2000/svg" xmlns:xlink="http://www.w3.org/1999/xlink">
    <!-- Generator: Sketch 49.3 (51167) - http://www.bohemiancoding.com/sketch -->
    <title>partlyCloudyN</title>
    <desc>Created with Sketch.</desc>
    <defs></defs>
    <g id="partlyCloudyN" stroke="none" stroke-width="1" fill="none" fill-rule="evenodd">
        <path d="M25.8648147,167.927322 C26.0327337,158.245446 28.2698331,149.644615 32.5761725,142.12459 C37.0572469,134.29943 43.8121982,128.146405 52.8412288,123.66533 C61.8702594,119.184256 72.9390161,116.943752 86.0478309,116.943752 C99.0228823,116.943752 110.024758,119.184256 119.053789,123.66533 C128.08282,128.146405 134.837771,134.29943 139.318845,142.12459 C141.928457,146.681672 143.778186,151.635656 144.868047,156.986595 C149.315248,155.794225 154.305236,155.198045 159.838067,155.198045 C168.524582,155.198045 175.890099,156.698014 181.93484,159.697996 C187.97958,162.697978 192.501873,166.817295 195.501855,172.05607 C198.501837,177.294844 200.001806,183.317106 200.001806,190.123036 C200.001806,193.400644 199.508146,196.586812 198.52082,199.681559 C194.5,199.705292 123.5,199.868378 121.081224,199.868378 C121.053089,199.782033 121.025339,199.695618 120.997975,199.60913 L36.689377,199.60913 C36.6811162,199.598269 36.6728602,199.587407 36.6646089,199.576544 C22.9408473,199.6274 3.0832108,199.70176 2.26197073,199.6948 C0.753984991,196.726842 -1.42108547e-14,193.619269 0,190.372034 C0,185.998169 0.963962439,182.127932 2.89191624,178.761206 C4.81987003,175.394481 7.72614485,172.747181 11.6108279,170.819227 C15.4879452,168.895028 20.2392268,167.93107 25.8648147,167.927322 Z" id="Combined-Shape" fill="#FFFFFF"></path>
        <path d="M140.698944,1.89956522 C145.284717,0.633184494 150.208663,5.27868316e-14 155.470836,5.24646164e-14 C163.834224,5.19525066e-14 171.368694,1.65758343 178.074473,4.97280002 C184.780252,8.2880166 190.110889,13.2607669 194.066545,19.8912001 C198.022202,26.5216332 200,34.5835163 200,44.0770911 C200,53.4199742 198.022202,61.4065125 194.066545,68.0369457 C190.110889,74.6673789 184.761415,79.6589653 178.017964,83.0118548 C171.274512,86.3647443 163.758878,88.0411639 155.470836,88.0411639 C150.194243,88.0411639 145.257734,87.3972697 140.661253,86.1094693 C143.44877,85.3193313 146.124624,84.2867941 148.688827,83.0118548 C155.432279,79.6589653 160.781753,74.6673789 164.737409,68.0369457 C168.693066,61.4065125 170.670864,53.4199742 170.670864,44.0770911 C170.670864,34.5835163 168.693066,26.5216332 164.737409,19.8912001 C160.781753,13.2607669 155.451116,8.2880166 148.745337,4.97280002 C146.184101,3.70657109 143.501974,2.68216042 140.698944,1.89956522 Z" id="Combined-Shape-Copy" fill="#FFFFFF"></path>
    </g>
</svg>