<?xml version="1.0" encoding="UTF-8"?>
<svg width="200px" height="200px" viewBox="0 0 200 200" version="1.1" xmlns="http://www.w3.org/2000/svg" xmlns:xlink="http://www.w3.org/1999/xlink">
    <!-- Generator: Sketch 49.3 (51167) - http://www.bohemiancoding.com/sketch -->
    <title>rain</title>
    <desc>Created with Sketch.</desc>
    <defs></defs>
    <g id="rain" stroke="none" stroke-width="1" fill="none" fill-rule="evenodd">
        <path d="M125.473885,142.284043 C116.567593,146.435808 98.8317919,158.790312 72.2664818,179.347553 C65.1349848,184.771509 57.5013841,187.483446 49.3654509,187.483446 C41.7317357,187.483446 34.9770035,185.80104 29.1010517,182.436179 C23.2250999,179.071318 18.6047627,173.998991 15.2399014,167.219047 C11.8750401,160.439102 10.1926347,152.127517 10.1926347,142.284043 C10.1926347,132.541011 11.8750401,124.279648 15.2399014,117.499703 C18.6047627,110.719759 23.2250999,105.647432 29.1010517,102.282571 C34.9770035,98.9177095 41.7317357,97.2353041 49.3654509,97.2353041 C57.5013841,97.2353041 65.1349848,99.9472412 72.2664818,105.371197 C99.0544492,126.561178 116.79025,138.86546 125.473885,142.284043 Z" id="q" fill="#FFFFFF" transform="translate(67.833260, 142.359375) rotate(-90.000000) translate(-67.833260, -142.359375) "></path>
        <path d="M211.159283,60.467357 C203.218772,64.1689129 187.406208,75.1837175 163.72159,93.511771 C157.363418,98.3475631 150.557591,100.765423 143.303903,100.765423 C136.497973,100.765423 130.475711,99.2654543 125.236937,96.2654722 C119.998162,93.2654901 115.878845,88.7431968 112.878863,82.6984567 C109.878881,76.6537166 108.378912,69.2434241 108.378912,60.467357 C108.378912,51.7808416 109.878881,44.4153244 112.878863,38.3705843 C115.878845,32.3258442 119.998162,27.8035509 125.236937,24.8035687 C130.475711,21.8035866 136.497973,20.3036181 143.303903,20.3036181 C150.557591,20.3036181 157.363418,22.7214778 163.72159,27.5572699 C187.604721,46.4494499 203.417285,57.4194789 211.159283,60.467357 Z" id="q-copy" fill="#FFFFFF" transform="translate(159.769098, 60.534520) rotate(-90.000000) translate(-159.769098, -60.534520) "></path>
        <path d="M58.8807587,32.9830014 C53.7777492,35.3618251 43.6157241,42.4405454 28.3946835,54.2191624 C24.3085725,57.3269088 19.9347727,58.8807587 15.2731531,58.8807587 C10.8992878,58.8807587 7.02905052,57.9167963 3.66232523,55.9888425 C0.295599943,54.0608887 -2.35169989,51.1546139 -4.27965369,47.2699309 C-6.20760748,43.3852478 -7.17156992,38.6229856 -7.17156992,32.9830014 C-7.17156992,27.400568 -6.20760748,22.6670808 -4.27965369,18.7823978 C-2.35169989,14.8977148 0.295599943,11.99144 3.66232523,10.0634862 C7.02905052,8.13553236 10.8992878,7.17156992 15.2731531,7.17156992 C19.9347727,7.17156992 24.3085725,8.72541982 28.3946835,11.8331662 C43.7432994,23.974322 53.9053245,31.024267 58.8807587,32.9830014 Z" id="q-copy" fill="#FFFFFF" transform="translate(25.854594, 33.026164) rotate(-90.000000) translate(-25.854594, -33.026164) "></path>
    </g>
</svg>