<?xml version="1.0" encoding="UTF-8"?>
<svg width="200px" height="200px" viewBox="0 0 200 200" version="1.1" xmlns="http://www.w3.org/2000/svg" xmlns:xlink="http://www.w3.org/1999/xlink">
    <!-- Generator: Sketch 49.3 (51167) - http://www.bohemiancoding.com/sketch -->
    <title>search</title>
    <desc>Created with Sketch.</desc>
    <defs></defs>
    <g id="search" stroke="none" stroke-width="1" fill="none" fill-rule="evenodd">
        <path d="M133.872681,133.65087 C122.269095,145.254457 110.044071,152.736816 97.1972428,156.098172 C84.3504149,159.459529 71.7800514,159.045121 59.4857752,154.854937 C47.191499,150.664753 35.8413356,143.366575 25.4349445,132.960184 C15.2127373,122.737977 8.0296724,111.502927 3.88553435,99.2546964 C-0.2586037,87.0064662 -0.696033932,74.41308 2.57323053,61.4741601 C5.84249499,48.5352402 13.2788089,36.2641711 24.8823955,24.6605845 C36.3017981,13.2411819 48.4807767,5.89695853 61.4196966,2.62769407 C74.3586165,-0.641570387 86.9980479,-0.204140155 99.3383701,3.93999789 C111.678692,8.08413594 122.913743,15.2211555 133.043858,25.3512708 C143.450249,35.7576619 150.725404,47.1308479 154.869542,59.4711701 C159.01368,71.8114923 159.428088,84.3818558 156.112778,97.1826378 C152.797467,109.98342 145.384176,122.139376 133.872681,133.65087 Z M112.87582,112.654009 C103.666624,121.863205 93.5596838,125.846122 82.554695,124.602881 C71.5497061,123.359639 60.9823126,117.673046 50.8521974,107.542931 C40.9062661,97.5969998 35.3117636,87.0756516 34.0685222,75.9785708 C32.8252808,64.88149 36.7621529,54.7745494 45.8792566,45.6574457 C51.7731418,39.7635604 58.28855,36.1029601 65.4256767,34.6755347 C72.5628033,33.2481094 79.7228455,33.9157661 86.9060182,36.6785248 C94.0891908,39.4412835 100.857848,43.999767 107.212193,50.354112 C117.342308,60.4842272 123.051924,71.1667339 124.341211,82.4019526 C125.630499,93.6371713 121.80874,103.721089 112.87582,112.654009 Z" id="O" fill="#FFFFFF"></path>
        <polygon id="i" fill="#FFFFFF" points="106.935917 128.684559 128.661235 106.959242 199.330945 177.628952 177.605627 199.354269"></polygon>
    </g>
</svg>