<?xml version="1.0" encoding="UTF-8"?>
<svg width="200px" height="200px" viewBox="0 0 200 200" version="1.1" xmlns="http://www.w3.org/2000/svg" xmlns:xlink="http://www.w3.org/1999/xlink">
    <!-- Generator: Sketch 49.3 (51167) - http://www.bohemiancoding.com/sketch -->
    <title>singleraindrop</title>
    <desc>Created with Sketch.</desc>
    <defs></defs>
    <g id="singleraindrop" stroke="none" stroke-width="1" fill="none" fill-rule="evenodd">
        <path d="M200,99.8693069 C184.548586,107.072153 153.778966,128.505827 107.691142,164.170328 C95.3187965,173.580281 82.0753581,178.285187 67.9604292,178.285187 C54.7167922,178.285187 42.9980917,175.366403 32.8039764,169.528747 C22.6098611,163.691091 14.5940957,154.891175 8.75643992,143.128734 C2.91878412,131.366293 4.29878355e-13,116.946628 4.29878355e-13,99.8693069 C4.29878355e-13,82.9662438 2.91878412,68.6337069 8.75643992,56.8712661 C14.5940957,45.1088253 22.6098611,36.308909 32.8039764,30.4712532 C42.9980917,24.6335974 54.7167922,21.7148133 67.9604292,21.7148133 C82.0753581,21.7148133 95.3187965,26.419719 107.691142,35.8296717 C154.165251,72.5919054 184.934871,93.9384504 200,99.8693069 Z" id="q" fill="#FFFFFF" transform="translate(100.000000, 100.000000) rotate(-90.000000) translate(-100.000000, -100.000000) "></path>
    </g>
</svg>