<?xml version="1.0" encoding="UTF-8"?>
<svg width="200px" height="200px" viewBox="0 0 200 200" version="1.1" xmlns="http://www.w3.org/2000/svg" xmlns:xlink="http://www.w3.org/1999/xlink">
    <!-- Generator: Sketch 49.3 (51167) - http://www.bohemiancoding.com/sketch -->
    <title>snow</title>
    <desc>Created with Sketch.</desc>
    <defs></defs>
    <g id="snow" stroke="none" stroke-width="1" fill="none" fill-rule="evenodd">
        <polygon id="*-copy-2" fill="#FFFFFF" transform="translate(25.308926, 119.052931) rotate(45.000000) translate(-25.308926, -119.052931) " points="35.0985244 119.052931 49.9312487 125.38156 43.1081955 137.247739 30.154283 127.557026 32.1319796 143.576368 18.4858732 143.576368 20.4635698 127.557026 7.50965723 137.247739 0.686604058 125.38156 15.5193284 119.052931 0.686604058 112.724302 7.50965723 100.858122 20.4635698 110.548836 18.4858732 94.5294935 32.1319796 94.5294935 30.154283 110.548836 43.1081955 100.858122 49.9312487 112.724302"></polygon>
        <polygon id="*-copy" fill="#FFFFFF" transform="translate(68.772352, 42.203962) rotate(20.000000) translate(-68.772352, -42.203962) " points="84.977549 42.2039623 109.530879 52.6800495 98.236347 72.3227132 76.7931058 56.2812045 80.0668831 82.7988004 57.4778199 82.7988004 60.7515972 56.2812045 39.308356 72.3227132 28.0138245 52.6800495 52.567154 42.2039623 28.0138245 31.727875 39.308356 12.0852113 60.7515972 28.12672 57.4778199 1.60912407 80.0668831 1.60912407 76.7931058 28.12672 98.236347 12.0852113 109.530879 31.727875"></polygon>
        <polygon id="*-copy" fill="#FFFFFF" transform="translate(142.383142, 142.150815) rotate(90.000000) translate(-142.383142, -142.150815) " points="165.38342 142.150815 200.232326 157.019682 184.201829 184.898807 153.767118 162.130855 158.413638 199.767674 126.352645 199.767674 130.999165 162.130855 100.564454 184.898807 84.533957 157.019682 119.382863 142.150815 84.533957 127.281949 100.564454 99.4028237 130.999165 122.170776 126.352645 84.533957 158.413638 84.533957 153.767118 122.170776 184.201829 99.4028237 200.232326 127.281949"></polygon>
    </g>
</svg>